 <svg  version="1.0" xmlns="http://www.w3.org/2000/svg"  width="256.000000pt" height="256.000000pt" viewBox="0 0 256.000000 256.000000"  preserveAspectRatio="xMidYMid meet">  <g transform="translate(0.000000,256.000000) scale(0.100000,-0.100000)" fill="#ffffff" stroke="none"> <path d="M482 2001 c2 -5 75 -110 163 -235 l159 -226 314 0 c270 0 319 -2 348 -16 59 -28 81 -102 49 -164 -27 -52 -41 -55 -298 -60 l-238 -5 244 -345 244 -345 267 -3 267 -2 -125 165 -124 166 72 72 c150 150 209 352 161 556 -38 158 -160 312 -305 383 -132 65 -169 68 -715 68 -275 0 -485 -4 -483 -9z m1041 -36 c131 -27 248 -97 318 -189 22 -28 43 -55 47 -61 20 -26 60 -125 71 -173 40 -189 -19 -384 -160 -524 -38 -38 -69 -77 -69 -86 1 -23 11 -38 113 -174 48 -64 87 -119 87 -122 0 -4 -100 -5 -222 -4 l-223 3 -107 150 c-218 303 -328 463 -328 474 0 8 57 11 195 11 176 0 200 2 235 20 99 50 105 187 12 250 l-35 25 -318 3 -318 3 -108 152 c-157 222 -166 235 -158 246 11 18 883 14 968 -4z"/> </g> </svg> 